<svg xmlns="http://www.w3.org/2000/svg" width="32" height="32" viewBox="0 0 32 32" shape-rendering="crispEdges">
  <!-- State 2: Paper plane diving - wings down (clicked) -->
  <rect x="2" y="10" width="2" height="2" fill="#c4b5fd"/>
  <rect x="4" y="10" width="2" height="2" fill="#a78bfa"/>
  <rect x="4" y="12" width="2" height="2" fill="#ddd6fe"/>
  <rect x="6" y="10" width="2" height="2" fill="#8b5cf6"/>
  <rect x="6" y="12" width="2" height="2" fill="#c4b5fd"/>
  <rect x="6" y="14" width="2" height="2" fill="#ede9fe"/>
  <rect x="8" y="10" width="2" height="2" fill="#7c3aed"/>
  <rect x="8" y="12" width="2" height="2" fill="#a78bfa"/>
  <rect x="8" y="14" width="2" height="2" fill="#ddd6fe"/>
  <rect x="8" y="16" width="2" height="2" fill="#f5f3ff"/>
  <rect x="10" y="12" width="2" height="2" fill="#8b5cf6"/>
  <rect x="10" y="14" width="2" height="2" fill="#c4b5fd"/>
  <rect x="10" y="16" width="2" height="2" fill="#ede9fe"/>
  <rect x="10" y="18" width="2" height="2" fill="#f5f3ff"/>
  <rect x="12" y="12" width="2" height="2" fill="#7c3aed"/>
  <rect x="12" y="14" width="2" height="2" fill="#a78bfa"/>
  <rect x="12" y="16" width="2" height="2" fill="#ddd6fe"/>
  <rect x="12" y="18" width="2" height="2" fill="#ede9fe"/>
  <rect x="12" y="20" width="2" height="2" fill="#f5f3ff"/>
  <rect x="14" y="12" width="2" height="2" fill="#6d28d9"/>
  <rect x="14" y="14" width="2" height="2" fill="#8b5cf6"/>
  <rect x="14" y="16" width="2" height="2" fill="#c4b5fd"/>
  <rect x="14" y="18" width="2" height="2" fill="#ddd6fe"/>
  <rect x="14" y="20" width="2" height="2" fill="#ede9fe"/>
  <rect x="14" y="22" width="2" height="2" fill="#f5f3ff"/>
  <!-- Wing fold line -->
  <rect x="4" y="10" width="2" height="2" fill="#6d28d9"/>
  <rect x="6" y="10" width="2" height="2" fill="#6d28d9"/>
  <rect x="8" y="10" width="2" height="2" fill="#6d28d9"/>
  <rect x="10" y="10" width="2" height="2" fill="#6d28d9"/>
  <rect x="12" y="10" width="2" height="2" fill="#6d28d9"/>
  <rect x="14" y="10" width="2" height="2" fill="#6d28d9"/>
  <!-- Tail -->
  <rect x="16" y="14" width="2" height="2" fill="#c4b5fd"/>
  <rect x="16" y="16" width="2" height="2" fill="#ddd6fe"/>
  <rect x="16" y="18" width="2" height="2" fill="#ede9fe"/>
  <rect x="18" y="14" width="2" height="2" fill="#8b5cf6"/>
  <rect x="18" y="16" width="2" height="2" fill="#c4b5fd"/>
  <rect x="20" y="14" width="2" height="2" fill="#7c3aed"/>
  <!-- Top wing -->
  <rect x="6" y="8" width="2" height="2" fill="#a78bfa"/>
  <rect x="8" y="8" width="2" height="2" fill="#8b5cf6"/>
  <rect x="10" y="8" width="2" height="2" fill="#7c3aed"/>
  <rect x="12" y="8" width="2" height="2" fill="#6d28d9"/>
  <rect x="8" y="6" width="2" height="2" fill="#7c3aed"/>
  <rect x="10" y="6" width="2" height="2" fill="#6d28d9"/>
</svg>
